<?xml version="1.0" encoding="UTF-8" standalone="no"?>
<!DOCTYPE svg PUBLIC "-//W3C//DTD SVG 1.1//EN"
 "http://www.w3.org/Graphics/SVG/1.1/DTD/svg11.dtd">
<!-- Generated by graphviz version 7.1.0 (20230121.1956)
 -->
<!-- Title: DEMO Pages: 1 -->
<svg width="529pt" height="174pt"
 viewBox="0.00 0.00 529.05 174.01" xmlns="http://www.w3.org/2000/svg" xmlns:xlink="http://www.w3.org/1999/xlink">
<g id="graph0" class="graph" transform="scale(1 1) rotate(0) translate(4 170.01)">
<title>DEMO</title>
<polygon fill="white" stroke="none" points="-4,4 -4,-170.01 525.05,-170.01 525.05,4 -4,4"/>
<!-- %3 -->
<g id="node1" class="node">
<title>%3</title>
<ellipse fill="white" stroke="green" cx="20.51" cy="-74.51" rx="20.51" ry="20.51"/>
<text text-anchor="middle" x="20.51" y="-70.81" font-family="Times New Roman,serif" font-size="14.00">q1</text>
</g>
<!-- %5 -->
<g id="node2" class="node">
<title>%5</title>
<ellipse fill="white" stroke="green" cx="180.52" cy="-112.51" rx="20.51" ry="20.51"/>
<text text-anchor="middle" x="180.52" y="-108.81" font-family="Times New Roman,serif" font-size="14.00">q2</text>
</g>
<!-- %3&#45;&gt;%5 -->
<g id="edge1" class="edge">
<title>%5&#45;&gt;%5</title>
<path fill="none" stroke="black" d="M41.14,-72.34C58.05,-71.05 82.97,-70.49 104.01,-75.51 121.1,-79.58 138.81,-88 152.77,-95.77"/>
<polygon fill="black" stroke="black" points="150.94,-98.76 161.34,-100.76 154.46,-92.71 150.94,-98.76"/>
<text text-anchor="middle" x="100.51" y="-79.31" font-family="Times New Roman,serif" font-size="14.00">1</text>
</g>
<!-- %9 -->
<g id="node4" class="node">
<title>%9</title>
<ellipse fill="white" stroke="green" cx="180.52" cy="-20.51" rx="20.51" ry="20.51"/>
<text text-anchor="middle" x="180.52" y="-16.81" font-family="Times New Roman,serif" font-size="14.00">q4</text>
</g>
<!-- %3&#45;&gt;%9 -->
<g id="edge2" class="edge">
<title>%9&#45;&gt;%9</title>
<path fill="none" stroke="black" d="M40.25,-68.1C67.46,-58.8 118.13,-41.49 150.27,-30.5"/>
<polygon fill="black" stroke="black" points="151.03,-33.94 159.36,-27.39 148.77,-27.32 151.03,-33.94"/>
<text text-anchor="middle" x="100.51" y="-52.31" font-family="Times New Roman,serif" font-size="14.00">0</text>
</g>
<!-- %5&#45;&gt;%3 -->
<g id="edge3" class="edge">
<title>%3&#45;&gt;%3</title>
<path fill="none" stroke="black" d="M160.27,-108.24C136.44,-102.9 94.65,-93.39 59.01,-84.51 56.57,-83.9 54.04,-83.25 51.5,-82.6"/>
<polygon fill="black" stroke="black" points="52.58,-79.26 42.02,-80.1 50.8,-86.03 52.58,-79.26"/>
<text text-anchor="middle" x="100.51" y="-98.31" font-family="Times New Roman,serif" font-size="14.00">1</text>
</g>
<!-- %7 -->
<g id="node3" class="node">
<title>%7</title>
<ellipse fill="white" stroke="green" cx="340.53" cy="-112.51" rx="20.51" ry="20.51"/>
<text text-anchor="middle" x="340.53" y="-108.81" font-family="Times New Roman,serif" font-size="14.00">q3</text>
</g>
<!-- %5&#45;&gt;%7 -->
<g id="edge4" class="edge">
<title>%7&#45;&gt;%7</title>
<path fill="none" stroke="black" d="M201.21,-112.51C228.06,-112.51 276.45,-112.51 308.28,-112.51"/>
<polygon fill="black" stroke="black" points="308.08,-116.01 318.08,-112.51 308.08,-109.01 308.08,-116.01"/>
<text text-anchor="middle" x="260.52" y="-116.31" font-family="Times New Roman,serif" font-size="14.00">0</text>
</g>
<!-- %7&#45;&gt;%7 -->
<g id="edge5" class="edge">
<title>%7&#45;&gt;%7</title>
<path fill="none" stroke="black" d="M333.47,-131.92C332.39,-141.96 334.74,-151.01 340.53,-151.01 343.97,-151.01 346.19,-147.82 347.21,-143.13"/>
<polygon fill="black" stroke="black" points="350.7,-143.55 347.54,-133.44 343.7,-143.31 350.7,-143.55"/>
<text text-anchor="middle" x="340.53" y="-154.81" font-family="Times New Roman,serif" font-size="14.00">1</text>
</g>
<!-- %13 -->
<g id="node6" class="node">
<title>%13</title>
<ellipse fill="white" stroke="green" cx="500.54" cy="-82.51" rx="20.51" ry="20.51"/>
<text text-anchor="middle" x="500.54" y="-78.81" font-family="Times New Roman,serif" font-size="14.00">q6</text>
</g>
<!-- %7&#45;&gt;%13 -->
<g id="edge6" class="edge">
<title>%13&#45;&gt;%13</title>
<path fill="none" stroke="black" d="M360.91,-108.83C387.92,-103.7 437.16,-94.35 469.1,-88.29"/>
<polygon fill="black" stroke="black" points="469.35,-91.8 478.52,-86.5 468.04,-84.92 469.35,-91.8"/>
<text text-anchor="middle" x="420.54" y="-101.31" font-family="Times New Roman,serif" font-size="14.00">0</text>
</g>
<!-- %9&#45;&gt;%9 -->
<g id="edge7" class="edge">
<title>%9&#45;&gt;%9</title>
<path fill="none" stroke="black" d="M173.46,-39.92C172.38,-49.96 174.73,-59.01 180.52,-59.01 183.96,-59.01 186.18,-55.82 187.2,-51.13"/>
<polygon fill="black" stroke="black" points="190.68,-51.55 187.52,-41.44 183.69,-51.31 190.68,-51.55"/>
<text text-anchor="middle" x="180.52" y="-62.81" font-family="Times New Roman,serif" font-size="14.00">1</text>
</g>
<!-- %11 -->
<g id="node5" class="node">
<title>%11</title>
<ellipse fill="white" stroke="green" cx="340.53" cy="-53.51" rx="20.51" ry="20.51"/>
<text text-anchor="middle" x="340.53" y="-49.81" font-family="Times New Roman,serif" font-size="14.00">q5</text>
</g>
<!-- %9&#45;&gt;%11 -->
<g id="edge8" class="edge">
<title>%11&#45;&gt;%11</title>
<path fill="none" stroke="black" d="M200.45,-27.12C206.35,-29.03 212.92,-31 219.02,-32.51 249.15,-39.91 284.14,-45.71 308.63,-49.31"/>
<polygon fill="black" stroke="black" points="307.84,-52.74 318.24,-50.69 308.84,-45.81 307.84,-52.74"/>
<text text-anchor="middle" x="260.52" y="-46.31" font-family="Times New Roman,serif" font-size="14.00">0</text>
</g>
<!-- %11&#45;&gt;%9 -->
<g id="edge9" class="edge">
<title>%9&#45;&gt;%9</title>
<path fill="none" stroke="black" d="M321.81,-44.06C306.88,-36.63 284.69,-26.84 264.02,-22.51 247.26,-18.99 228.17,-18.32 212.57,-18.61"/>
<polygon fill="black" stroke="black" points="212.81,-15.1 202.93,-18.93 213.05,-22.09 212.81,-15.1"/>
<text text-anchor="middle" x="260.52" y="-26.31" font-family="Times New Roman,serif" font-size="14.00">1</text>
</g>
<!-- %11&#45;&gt;%13 -->
<g id="edge10" class="edge">
<title>%13&#45;&gt;%13</title>
<path fill="none" stroke="black" d="M361.22,-57.12C388.15,-62.06 436.72,-70.98 468.55,-76.82"/>
<polygon fill="black" stroke="black" points="467.89,-80.26 478.36,-78.62 469.16,-73.37 467.89,-80.26"/>
<text text-anchor="middle" x="420.54" y="-72.31" font-family="Times New Roman,serif" font-size="14.00">0</text>
</g>
</g>
</svg>
